<svg width="150" height="148" viewBox="0 0 150 148" fill="none" xmlns="http://www.w3.org/2000/svg">
<g clip-path="url(#clip0_337_44)">
<path fill-rule="evenodd" clip-rule="evenodd" d="M74.7765 0.530609C33.427 0.530609 0 34.2041 0 75.8628C0 109.163 21.4179 137.351 51.1301 147.327C54.8449 148.077 56.2056 145.706 56.2056 143.712C56.2056 141.965 56.0832 135.979 56.0832 129.742C35.2821 134.233 30.9505 120.762 30.9505 120.762C27.6077 112.031 22.6546 109.787 22.6546 109.787C15.8464 105.172 23.1505 105.172 23.1505 105.172C30.7026 105.671 34.6653 112.905 34.6653 112.905C41.3495 124.379 52.1204 121.137 56.4536 119.141C57.0719 114.277 59.0541 110.909 61.1587 109.039C44.5684 107.292 27.1133 100.807 27.1133 71.8709C27.1133 63.6393 30.0827 56.9046 34.7878 51.6668C34.0454 49.7964 31.4449 42.0622 35.5316 31.7107C35.5316 31.7107 41.8454 29.7148 56.0816 39.4434C62.1767 37.7944 68.4624 36.9555 74.7765 36.9485C81.0903 36.9485 87.5265 37.8224 93.4699 39.4434C107.708 29.7148 114.021 31.7107 114.021 31.7107C118.108 42.0622 115.506 49.7964 114.764 51.6668C119.593 56.9046 122.44 63.6393 122.44 71.8709C122.44 100.807 104.985 107.167 88.2704 109.039C90.9949 111.408 93.3459 115.897 93.3459 123.007C93.3459 133.109 93.2235 141.217 93.2235 143.71C93.2235 145.706 94.5857 148.077 98.299 147.329C128.011 137.349 149.429 109.163 149.429 75.8628C149.552 34.2041 116.002 0.530609 74.7765 0.530609Z" fill="white"/>
</g>
<defs>
<clipPath id="clip0_337_44">
<rect width="150" height="146.939" fill="white" transform="translate(0 0.530609)"/>
</clipPath>
</defs>
</svg>
