<svg width="128" height="127" viewBox="0 0 128 127" fill="none" xmlns="http://www.w3.org/2000/svg">
<path d="M108.476 107.878H89.6831V78.7373C89.6831 71.7884 89.5578 62.843 79.9088 62.843C70.1207 62.843 68.6231 70.4141 68.6231 78.2314V107.876H49.83V47.9508H67.8713V56.1403H68.1239C69.9294 53.0836 72.5384 50.5691 75.6731 48.8644C78.8077 47.1598 82.3507 46.3289 85.9245 46.4603C104.972 46.4603 108.484 58.8656 108.484 75.0041L108.476 107.878ZM28.6252 39.7595C26.4682 39.7598 24.3595 39.1269 22.5658 37.9407C20.7722 36.7544 19.3741 35.0682 18.5483 33.0952C17.7225 31.1222 17.5061 28.951 17.9265 26.8562C18.347 24.7615 19.3853 22.8372 20.9103 21.3267C22.4352 19.8163 24.3783 18.7875 26.4937 18.3704C28.6092 17.9534 30.802 18.1669 32.7949 18.9838C34.7878 19.8008 36.4913 21.1845 37.69 22.9601C38.8887 24.7357 39.5287 26.8233 39.5291 28.9591C39.5293 30.3771 39.2475 31.7814 38.6996 33.0916C38.1518 34.4018 37.3488 35.5924 36.3363 36.5953C35.3237 37.5982 34.1215 38.3938 32.7985 38.9367C31.4754 39.4796 30.0573 39.7592 28.6252 39.7595ZM38.0217 107.878H19.2091V47.9508H38.0217V107.878ZM117.845 0.882357H9.7656C7.3125 0.854947 4.94864 1.79298 3.19367 3.49032C1.4387 5.18766 0.436189 7.50544 0.40625 9.93436V117.393C0.435164 119.824 1.43709 122.143 3.192 123.842C4.94691 125.541 7.31128 126.481 9.7656 126.455H117.845C120.304 126.486 122.675 125.549 124.437 123.849C126.199 122.15 127.208 119.828 127.242 117.393V9.92661C127.207 7.49287 126.197 5.17245 124.435 3.47515C122.674 1.77785 120.303 0.842503 117.845 0.874601" fill="white"/>
</svg>
